<svg version="1.2" xmlns="http://www.w3.org/2000/svg" viewBox="0 0 1080 1080" width="1080" height="1080">
	<title>New Project</title>
	<style>
		.s0 { fill: #ffffff;stroke: #000000;stroke-miterlimit:10;stroke-width: 75 } 
	</style>
	<g id="Layer 1">
		<path id="Shape 1" fill-rule="evenodd" class="s0" d="m197.5 37h687c88.4 0 160 71.6 160 160v686c0 88.4-71.6 160-160 160h-687c-88.4 0-160-71.6-160-160v-686c0-88.4 71.6-160 160-160z"/>
		<path id="Shape 5" fill-rule="evenodd" class="s0" d="m629 353v531h-104c-41.4 0-75-33.6-75-75v-456z"/>
		<path id="Shape 3" fill-rule="evenodd" class="s0" d="m259 200h636v91c0 41.4-33.6 75-75 75h-636v-91c0-41.4 33.6-75 75-75z"/>
	</g>
</svg>